Coordinates
version=1
nRows=9
nColumns=63
inDegrees=yes

Units are S.I. units (second, meters, Newtons, ...)
If the header above contains a line with 'inDegrees', this indicates whether rotational values are in degrees (yes) or radians (no).

endheader
time	pelvis_tilt	pelvis_list	pelvis_rotation	pelvis_tx	pelvis_ty	pelvis_tz	hip_flexion_r	hip_adduction_r	hip_rotation_r	knee_angle_r	knee_angle_r_beta	ankle_angle_r	subtalar_angle_r	mtp_angle_r	hip_flexion_l	hip_adduction_l	hip_rotation_l	knee_angle_l	knee_angle_l_beta	ankle_angle_l	subtalar_angle_l	mtp_angle_l	L5_S1_Flex_Ext	L5_S1_Lat_Bending	L5_S1_axial_rotation	L4_L5_Flex_Ext	L4_L5_Lat_Bending	L4_L5_axial_rotation	L3_L4_Flex_Ext	L3_L4_Lat_Bending	L3_L4_axial_rotation	L2_L3_Flex_Ext	L2_L3_Lat_Bending	L2_L3_axial_rotation	L1_L2_Flex_Ext	L1_L2_Lat_Bending	L1_L2_axial_rotation	L1_T12_Flex_Ext	L1_T12_Lat_Bending	L1_T12_axial_rotation	Abs_r3	Abs_r2	Abs_r1	Abs_t1	Abs_t2	neck_flexion	neck_bending	neck_rotation	arm_flex_r	arm_add_r	arm_rot_r	elbow_flex_r	pro_sup_r	wrist_flex_r	wrist_dev_r	arm_flex_l	arm_add_l	arm_rot_l	elbow_flex_l	pro_sup_l	wrist_flex_l	wrist_dev_l
      2.74576271	     -2.31636758	      4.11372184	     72.08878192	      0.18553060	      0.88331480	      0.58005285	      6.97927060	      1.38476166	     11.07668363	     17.98860472	      0.31396038	     39.17703561	     -7.67472089	      0.00000000	      3.13734024	      0.07410270	      7.48135267	     11.15739477	      0.19473327	     41.45184927	      2.77656757	      0.00000000	     -0.25213167	      0.48693423	      1.18648693	     -0.46823372	      0.64762252	      1.26064237	     -0.41422712	      1.18393188	      1.26064237	     -0.28816128	      1.18393188	      1.03817607	     -0.23412947	      0.99295627	      0.96402063	     -0.14406804	      0.75426112	      0.88986520	     -1.80095130	      5.50829735	      6.59888437	      0.00000000	      0.00000000	      6.22288626	     -8.43004074	      3.68651042	     -3.94177802	    -18.48056169	     23.44914129	     60.01384345	     88.94123646	     -8.38873465	     17.44251957	     54.42186368	     -5.45350720	      2.73573039	    148.99636828	     88.50366727	      6.45151272	     10.86176334
      2.76271186	     -2.28387647	      4.05991568	     72.10667730	      0.18575075	      0.88388277	      0.58119842	      6.89844903	      1.43634447	     11.08236025	     17.54143774	      0.30615584	     38.58683602	     -8.18841642	      0.00000000	      3.13304260	     -0.00378775	      7.50532202	     10.84234137	      0.18923456	     41.02270168	      2.92014294	      0.00000000	     -0.23865868	      0.48445772	      1.28237310	     -0.44321304	      0.64432877	      1.36252142	     -0.39209235	      1.17791050	      1.36252142	     -0.27276301	      1.17791050	      1.12207646	     -0.22161845	      0.98790619	      1.04192815	     -0.13636957	      0.75042501	      0.96177983	     -1.70471509	      5.48028263	      7.13217448	      0.00000000	      0.00000000	      6.65481370	     -8.19072032	      3.40516686	     -4.53949541	    -18.08582645	     21.67456405	     59.93155647	     88.84655493	     -9.63665405	     16.21698522	     54.94264694	     -4.58823798	      3.19234357	    148.83017757	     88.55590712	      6.55793342	     10.12625808
      2.77966102	     -2.28728933	      3.98113941	     72.08122836	      0.18593336	      0.88466360	      0.58281306	      6.98019807	      1.46317966	     10.76505351	     17.34025722	      0.30264458	     37.97652850	     -8.34489802	      0.00000000	      3.24865680	     -0.04675853	      7.39126274	     10.67598537	      0.18633110	     40.51676905	      2.96718880	      0.00000000	     -0.22442787	      0.47802055	      1.32620523	     -0.41678500	      0.63576733	      1.40909306	     -0.36871255	      1.16225916	      1.40909306	     -0.25649861	      1.16225916	      1.16042958	     -0.20840372	      0.97477950	      1.07754175	     -0.12823808	      0.74045383	      0.99465392	     -1.60306582	      5.40746404	      7.37595563	      0.00000000	      0.00000000	      6.84873818	     -8.06743248	      3.48590736	     -4.42672142	    -18.04839937	     21.27987870	     59.65951508	     88.70688972	     -9.86126771	     16.03915950	     55.47599406	     -3.90830790	      3.49893903	    148.82182996	     88.57531278	      6.54870786	      9.88330365
      2.79661017	     -2.27659768	      3.79941805	     72.10109219	      0.18621983	      0.88557827	      0.58403492	      6.95410434	      1.52913446	     10.40104319	     16.88318902	      0.29466724	     37.23467159	     -8.45405681	      0.00000000	      3.29134826	     -0.15765896	      7.20855553	     10.26337802	      0.17912974	     39.92770356	      3.08955096	      0.00000000	     -0.19927343	      0.46936955	      1.38224947	     -0.37007069	      0.62426150	      1.46864006	     -0.32738632	      1.14122512	      1.46864006	     -0.22774960	      1.14122512	      1.20946828	     -0.18504531	      0.95713838	      1.12307769	     -0.11386484	      0.72705343	      1.03668710	     -1.42339018	      5.30960219	      7.68765686	      0.00000000	      0.00000000	      7.36028528	     -7.54664700	      3.55465896	     -4.51957468	    -17.92462829	     20.77984781	     59.40616935	     88.51610077	    -10.19354440	     15.63874034	     55.96654584	     -3.02153864	      4.08450056	    148.78394507	     88.62586903	      6.47726890	      9.46668803
      2.81355932	     -2.24438652	      3.57897670	     72.03576545	      0.18682646	      0.88660535	      0.58495175	      6.83536756	      1.64674082	     10.06237325	     16.30290553	      0.28453938	     36.50949048	     -8.44906145	      0.00000000	      3.22403604	     -0.33301177	      6.96049794	      9.70311406	      0.16935129	     39.42306866	      3.27396685	      0.00000000	     -0.17900435	      0.46012574	      1.42511062	     -0.33242898	      0.61196724	      1.51418003	     -0.29408625	      1.11874973	      1.51418003	     -0.20458408	      1.11874973	      1.24697179	     -0.16622344	      0.93828841	      1.15790238	     -0.10228309	      0.71273478	      1.06883296	     -1.27861020	      5.20503443	      7.92603772	      0.00000000	      0.00000000	      7.92538867	     -6.91398486	      3.64049853	     -4.56717390	    -17.82296161	     20.54345419	     59.25496909	     88.33055996	    -10.47589791	     15.12628781	     56.41351517	     -2.21049785	      4.83021259	    148.80026845	     88.67176753	      6.20921032	      8.94481290
      2.83050847	     -2.13006295	      3.55735895	     71.81807154	      0.18775041	      0.88818162	      0.58530346	      6.26076446	      1.76549811	      9.66218414	     15.42088174	      0.26914516	     35.67613998	     -8.05101710	      0.00000000	      2.62776829	     -0.55411083	      6.15187041	      8.70761554	      0.15197656	     38.89610704	      3.96829659	      0.00000000	     -0.20119182	      0.45393786	      1.45562894	     -0.37363333	      0.60373736	      1.54660575	     -0.33053804	      1.10370452	      1.54660575	     -0.22994213	      1.10370452	      1.27367532	     -0.18682673	      0.92567009	      1.18269851	     -0.11496101	      0.70314975	      1.09172170	     -1.43709306	      5.13503587	      8.09577147	      0.00000000	      0.00000000	      8.51054803	     -6.17586193	      3.94553293	     -4.34766734	    -17.89493130	     21.02755298	     58.84327970	     88.10047697	    -11.09328387	     13.78284937	     56.83963356	     -1.79005634	      6.26804480	    148.74956633	     88.77238651	      3.90338744	      7.51096926
      2.84745763	     -2.27227069	      3.09783754	     71.70175303	      0.18827368	      0.88875787	      0.58642726	      6.52162058	      1.81001301	      9.24377740	     15.08637314	      0.26330688	     34.94104607	     -7.96390830	      0.00000000	      2.96491358	     -0.60730084	      5.80301786	      8.38536834	      0.14635229	     38.48322414	      3.98273180	      0.00000000	     -0.17445507	      0.43746298	      1.45678020	     -0.32398051	      0.58182577	      1.54782896	     -0.28661224	      1.06364750	      1.54782896	     -0.19938470	      1.06364750	      1.27468267	     -0.16199898	      0.89207452	      1.18363391	     -0.09968363	      0.67763016	      1.09258515	     -1.24611513	      4.94866877	      8.10217442	      0.00000000	      0.00000000	      9.82283680	     -6.30034151	      4.13599281	     -3.96267199	    -17.86367471	     21.42420244	     58.58394560	     88.01447839	    -11.00839265	     13.87592927	     57.34237394	     -1.26195293	      6.84257589	    148.82856709	     88.80665834	      3.49649811	      7.27511951
      2.86440678	     -2.42517928	      2.87146708	     71.49984973	      0.18894389	      0.88943008	      0.58748774	      6.51454255	      1.64452684	      7.88606481	     14.71015166	      0.25674058	     34.58221484	     -6.47430234	      0.00000000	      2.94346433	     -0.60949100	      4.91732297	      7.85424256	      0.13708239	     38.14839620	      4.63594001	      0.00000000	     -0.19554378	      0.41507085	      1.43221073	     -0.36314435	      0.55204422	      1.52172391	     -0.32125888	      1.00920325	      1.52172391	     -0.22348699	      1.00920325	      1.25318439	     -0.18158195	      0.84641247	      1.16367122	     -0.11173372	      0.64294474	      1.07415805	     -1.39674966	      4.69536441	      7.96552644	      0.00000000	      0.00000000	     11.45373901	     -6.34115478	      4.55799535	     -3.21981534	    -18.05527026	     22.56453991	     58.35332560	     87.87076301	    -10.69163208	     14.01026082	     57.94866390	     -1.46999847	      8.61898633	    148.88490321	     88.89634852	     -0.67079454	      5.78739432
      2.88135593	     -2.63592025	      2.43577514	     71.30571892	      0.18963295	      0.88960371	      0.58836640	      6.72452233	      1.62508292	      7.37521815	     14.35047056	      0.25046296	     33.87626032	     -6.47137828	      0.00000000	      3.23922545	     -0.57777789	      4.59063780	      7.51034124	      0.13108018	     37.75262980	      4.50149772	      0.00000000	     -0.18032838	      0.39501980	      1.45394941	     -0.33488783	      0.52537634	      1.54482125	     -0.29626149	      0.96045115	      1.54482125	     -0.20609730	      0.96045115	      1.27220574	     -0.16745293	      0.80552438	      1.18133390	     -0.10303963	      0.61188568	      1.09046206	     -1.28806756	      4.46854302	      8.08643045	      0.00000000	      0.00000000	     13.11875763	     -6.36840801	      4.59473113	     -2.99901791	    -17.91989681	     22.66555678	     58.29637170	     87.91212658	    -10.54426547	     14.06928353	     58.23865636	     -1.02907392	      9.10487267	    148.97316951	     88.87790899	     -0.56794485	      5.64082477
